DataType=double
version=3
OpenSimVersion=4.5-2023-11-26-efcdfd3eb
endheader
time	EMG01_right_gast_med	EMG02_right_glut_max	EMG03_left_gast_med	EMG04_left_glut_max	EMG05_right_glut_med	EMG06_right_bic_fem	EMG07_right_rect_fem	EMG08_right_vast_lat	EMG09_right_vast_med	EMG10_right_tens_fasc_lat	EMG11_left_glut_med	EMG12_left_bic_fem	EMG13_left_rect_fem	EMG14_left_vast_lat	EMG15_left_vast_med	EMG16_left_tens_fasc_lat
1.6	69.7014289253154	3.972719287165548	0.1778556734971425	64.20975849896341	25.43987612769898	1.462265186132428	5.582149365593727	3.558436465956871	16.7068708070201	11.63919933351631	7.036335206212805	16.39613405349192	3.577704987956237	9.741986932209873	-1.299502829539432	36.07987827322856
1.61	69.82989972877948	2.972753816968154	1.077229602620159	62.31566872090195	26.61891936917686	1.551327881828821	5.909858862925174	3.521015654576112	14.68712465930308	10.99813593282823	7.578587241446637	17.26582221215777	3.841771344464024	10.41830157156135	-0.895332479702255	37.35503824341474
1.62	69.84149199577331	2.13109938048421	1.977646908899459	60.52847458736868	28.37844875590844	1.671768003848636	6.275020734163709	3.519200803681383	12.88839423340372	10.44949816168721	8.153193929730202	18.10193394106606	4.122879448112799	11.14416247340701	-0.2091220641753132	38.68290753144916
1.63	69.71888277366136	1.460053483814723	2.877668164980989	58.86149111423872	30.71024119913927	1.820183389215273	6.673767864629146	3.5533970512367	11.3149936358842	9.997585548746358	8.757726733603468	18.89694448760643	4.41986425925962	11.91416418206236	0.7695050185811692	40.06447301678701
1.64	69.44540380369958	0.9708447473340724	3.776964320607481	57.32519527746269	33.59938664178264	1.993480161665845	7.101595627577963	3.623737226822455	9.968935357990425	9.645660323927908	9.389234630417841	19.64364725488135	4.73141672524396	12.72215353677253	2.04809820843003	41.49997054883718
1.65	69.00561952166557	0.6735368375664903	4.676147802535145	55.92720811669554	37.02417909074949	2.188879388071598	7.553422458519639	3.730083330123064	8.849997647407758	9.395958395776399	10.0442500199127	20.33524040554204	5.05608850467619	13.56130099129259	3.631183609387816	42.98882332640575
1.66	68.38588895711244	0.5769311007422223	5.576594256108109	54.6723062312917	40.95608676997782	2.403914914599736	8.02366314847781	3.872026382881215	7.955808237854318	9.249710965053724	10.71880291653739	20.96540821561274	5.392297770816202	14.42418240069013	5.520092650894771	44.52958436541374
1.67	67.5748888322847	0.688467731621639	6.480259023302138	53.5624637845829	45.35981041064284	2.636422389062654	8.506314101214199	4.048884642197165	7.281943563637538	9.207175508900852	11.40844420049268	21.52839733376182	5.73833586195102	15.30287023738328	7.712819518710814	46.11988405234232
1.68	66.5640756533551	1.014125654516951	7.389492436332195	52.5969271728145	50.19343825697242	2.884519743006446	8.995049473300579	4.259700490697183	6.822042538164357	9.267674967139207	12.10827846194254	22.01908811460967	6.092374508343016	16.18903313731313	10.20391139809274	47.75638316962947
1.69	65.34806568022481	1.558321672380405	8.306857883061706	51.77232464604196	55.40870544777872	3.146579802915501	9.483326751859554	4.50323655207301	6.567933868157454	9.429644125504897	12.81300664102614	22.43306078492183	6.452473420797864	17.07404259722421	12.98439555520213	49.43473150167026
1.7	63.92491377114121	2.323809913523293	9.234956388932957	51.08281247268592	60.95136403960291	3.42119611616275	9.964499946883352	4.777971705530162	6.509775676852898	9.690682254613813	13.51697835218055	22.76665563617479	6.816588149566273	17.94908559401057	16.04174714081427	51.1495322093843
1.71	62.29627622145542	3.311583180460994	10.17626119620695	50.52025810500242	66.7616681463083	3.707143383441715	10.43193819737551	5.082097746660833	6.636205948722867	10.04761092139747	14.21425352155056	23.01702595064474	7.182578234704679	18.80528193102676	19.35990132276973	52.89431233105561
1.72	60.46744970654944	4.520778421808234	11.13296553939947	50.07445966787373	72.77497652623016	4.003334051406904	10.87914722147844	5.413517505096562	6.934502066879056	10.49653559203455	14.89867275065028	23.18218197617073	7.548215730109674	19.63380515266012	22.91931291260548	54.66149988097008
1.73	58.44728758522507	5.94858914328182	12.10684652297731	49.73340011609591	78.92247252047908	4.308772703636688	11.29989070654388	5.769845260528593	7.390747578062602	11.03290933900586	15.56393565381111	23.26102388445585	7.911194228260805	20.42600571266338	26.69706605815774	56.44240843855683
1.74	56.24800351873019	7.590188103904668	13.09914767932385	49.4835334961821	85.13199867247225	4.622509944470898	11.68830845458527	6.148410274189634	7.990004333057416	11.65159682738009	16.20368631404125	23.25336135959396	8.269138609563838	21.17353462053192	30.66703592517181	58.22723140863959
1.75	53.88487817758887	9.438664075343487	14.11048239161874	49.31009974998717	91.3290007082351	4.943597474914645	12.03902783796429	6.546264192149224	8.716488296611681	12.3469369333122	16.81160492137424	23.15991755847514	8.619615922568293	21.86846512093387	34.80010371647671	60.0050502112076
1.76	51.37588746247097	11.48497676910481	15.14075989600412	49.19746325516518	97.43757267733018	5.271045984139563	12.3472648319265	6.960193011547084	9.553747551036153	13.11280284165882	17.38150450791674	22.98231586339275	8.960148013664531	22.50340935704359	39.06442591398709	61.76386275003947
1.77	48.74127134418598	13.71793425665643	16.18913503124241	49.12946871275962	103.3815916541799	5.603787343713456	12.60891065486515	7.386734236116381	10.48484130419296	13.94265908871231	17.90743141039444	22.72304894445887	9.28822664641214	23.07162677921069	43.42575816540276	63.49063988231749
1.78	46.00306203876681	16.12419728193359	17.25398227565939	49.08980616168712	109.0859263064566	5.940642427642064	12.82060017045426	7.822199773765612	11.49251904853572	14.82961550776898	18.38376770107734	22.38543076454168	9.601331807741669	23.56712152386672	47.84783357889349	65.17141788769925
1.79	43.18458910393242	18.68831475565126	18.33289389344125	49.06237520828103	114.4776989408635	6.280295699707275	12.97975906218524	8.26270504969759	12.55939934851282	15.7664782662286	18.80533343422829	21.97353298224736	9.896953733733696	23.98472694761348	52.29279418722292	66.79143393388217
1.8	40.3099774693866	21.39279444234887	19.42270122283904	49.03163750470633	119.4875756366266	6.621277507668914	13.08462843225054	8.704204725829648	13.66814796696729	16.7457982130054	19.16748628069923	21.49210769538966	10.17261899681846	24.32017640004145	56.72167300628782	68.3353093531567
1.81	37.40365267069841	24.21821242621706	20.51951731178361	48.98294645184217	124.0510541537285	6.961954803850882	13.13426744199416	9.142535299640024	14.80165514941145	17.75991679170796	19.46621605495526	20.9464988348226	10.42592082824888	24.57015968932368	61.09492258124025	69.78728262000959
1.82	34.48986571398428	27.14336434349916	21.61879827472573	48.90284416182318	128.1097147864511	7.300530779613304	13.12853624444361	9.573464652948775	15.94321190147149	18.80101004397534	19.69823173786308	20.34254501323484	10.65455368712624	24.73236462031145	65.37298429455716	71.13149079516946
1.83	31.59224806351388	30.1454605533343	22.71542000912146	48.77931760103164	131.6123956018795	7.635053656746575	13.06806239033762	9.992748319613641	17.07668499368673	19.8611317869207	19.86103867484497	19.68647719364201	10.8563518831091	24.80550294597443	69.51689095971234	72.35229524371076
1.84	28.73340530120715	33.20036636358983	23.80376654205358	48.60200783750467	134.5162514166338	7.963434610739046	12.95419416397841	10.39619187683207	18.18669012006964	20.93225768467168	19.95300352218418	18.98481482636802	11.02933177983784	24.78932042280454	73.48889320684347	73.43464465489355
1.85	25.9345561468171	36.28288713887003	24.87782660071624	48.3623680175739	136.7876567433005	8.283474502424371	12.78894417450006	10.77971849090843	19.25876210839891	22.00633230952711	19.97340426932713	18.24426389899704	11.17173675497359	24.68459134660748	77.25309786916304	74.36446550885719
1.86	23.21522177770416	39.36709663687	25.93129603113521	48.05376744237954	138.4029175319479	8.592898785783037	12.57492620220921	11.1394403071735	20.27952044631212	23.0753212196681	19.9224624674907	17.47161976602199	11.28208371034891	24.49309866336937	80.77610421809416	75.12906700569174
